<svg height="512" viewBox="0 0 503.923 503.923" width="512" xmlns="http://www.w3.org/2000/svg"><path d="M493.923 392.396h-28.532v-99.657c0-5.522-4.477-10-10-10h-91.868V160.486c0-5.522-4.477-10-10-10h-91.869v-48.959c0-5.522-4.477-10-10-10H149.786c-5.523 0-10 4.478-10 10v117.872H47.918c-5.523 0-10 4.478-10 10v28.397c0 5.522 4.477 10 10 10s10-4.478 10-10v-18.397h81.868v152.689H57.918v-54.754c0-5.522-4.477-10-10-10s-10 4.478-10 10v55.062H10c-5.523 0-10 4.478-10 10s4.477 10 10 10h483.923c5.523 0 10-4.478 10-10s-4.477-10-10-10zm-48.532-89.657v89.35h-81.868v-89.35zM343.523 170.486v221.603h-81.869V170.486zm-183.737-58.959h81.868v280.562h-81.868v-162.69z"/><path d="M39.608 302.996c.36.55.78 1.06 1.24 1.52s.97.88 1.52 1.24c.54.36 1.12.67 1.72.92.61.25 1.24.44 1.88.57s1.3.199 1.95.199 1.31-.069 1.95-.199 1.27-.32 1.87-.57a9.87 9.87 0 0 0 1.73-.92c.55-.36 1.06-.78 1.52-1.24s.88-.97 1.24-1.52c.36-.54.67-1.12.92-1.73.25-.6.45-1.229.58-1.87.12-.64.19-1.3.19-1.95 0-.649-.07-1.31-.19-1.96-.13-.63-.33-1.26-.58-1.869-.25-.601-.56-1.181-.92-1.721-.36-.55-.78-1.06-1.24-1.52s-.97-.88-1.52-1.24a9.87 9.87 0 0 0-1.73-.92c-.6-.25-1.23-.45-1.87-.57a9.847 9.847 0 0 0-3.9 0c-.64.12-1.27.32-1.88.57-.6.25-1.18.56-1.72.92-.55.36-1.06.78-1.52 1.24s-.88.97-1.24 1.52c-.36.54-.67 1.12-.92 1.721a9.779 9.779 0 0 0-.57 1.869c-.13.65-.2 1.311-.2 1.96 0 .65.07 1.311.2 1.95.12.641.32 1.271.57 1.87.25.61.561 1.19.92 1.73z"/></svg>