<svg xmlns="http://www.w3.org/2000/svg" viewBox="0 0 512 512"><path d="M332.8 121.9h-47.7c-5.5 0-10 4.5-10 10s4.5 10 10 10h47.7c5.5 0 10-4.5 10-10s-4.4-10-10-10z"/><path d="M496 74.7c0-5.5-4.5-10-10-10H26c-5.5 0-10 4.5-10 10v362.6c0 5.5 4.5 10 10 10h460c5.5 0 10-4.5 10-10V74.7zm-460 10h85.9v37.2H36V84.7zm46.8 342.6H36V246.9h46.8v180.4zm0-200.4H36v-27.7h46.8v27.7zm131 200.4h-111V246.9h111v180.4zm0-200.4h-111v-27.7h111v27.7zm131.1 200.4h-111V246.9h111v180.4zm0-200.4h-111v-27.7h111v27.7zM476 427.3H365V246.9h111v180.4zm0-200.4H365v-27.7h111v27.7zm0-47.7H36V142h95.9c5.5 0 10-4.5 10-10V84.7h334v94.5z"/><path d="M438.3 121.9h-47.7c-5.5 0-10 4.5-10 10s4.5 10 10 10h47.7c5.5 0 10-4.5 10-10s-4.5-10-10-10zm-210.9 0h-47.7c-5.5 0-10 4.5-10 10s4.5 10 10 10h47.7c5.5 0 10-4.5 10-10s-4.5-10-10-10z"/></svg>