<svg xmlns="http://www.w3.org/2000/svg" viewBox="0 0 28 46"><linearGradient id="a" gradientUnits="userSpaceOnUse" x1="5.916" y1="53.588" x2="22.254" y2="-4.19" gradientTransform="matrix(1 0 0 -1 0 48)"><stop offset="0" stop-color="#f8af19"/><stop offset="1" stop-color="#ef791b"/></linearGradient><path d="M13.7 38c1.6 0 3-1.3 3-3s-1.3-3-3-3c-1.6 0-3 1.3-3 3s1.4 3 3 3zm2.7-8c1.6 0 3-1.3 3-3s-1.3-3-3-3c-1.6 0-3 1.3-3 3s1.4 3 3 3zm2.8-7.9c1.6 0 3-1.3 3-3s-1.3-3-3-3-3 1.3-3 3 1.4 3 3 3zm2.7-7.9c1.6 0 3-1.3 3-3 0-1.6-1.3-3-3-3s-3 1.3-3 3c.1 1.6 1.4 3 3 3zm2.7-8c1.6 0 3-1.3 3-3s-1.3-3-3-3-3 1.3-3 3 1.4 3 3 3zM3.4 45.8c1.6 0 3-1.3 3-3s-1.3-3-3-3-3 1.3-3 3 1.3 3 3 3zM6.1 38c1.6 0 3-1.3 3-3s-1.3-3-3-3-3 1.3-3 3 1.3 3 3 3zm2.7-8c1.6 0 3-1.3 3-3s-1.3-3-3-3-3 1.3-3 3 1.3 3 3 3zm2.8-7.9c1.6 0 3-1.3 3-3s-1.3-3-3-3-3 1.3-3 3 1.4 3 3 3zm2.7-7.9c1.6 0 3-1.3 3-3 0-1.6-1.3-3-3-3-1.6 0-3 1.3-3 3 0 1.6 1.3 3 3 3zm2.7-8c1.6 0 3-1.3 3-3s-1.3-3-3-3-3 1.3-3 3 1.3 3 3 3zm-10.4 8c1.6 0 3-1.3 3-3 0-1.6-1.3-3-3-3s-3 1.3-3 3c.1 1.6 1.4 3 3 3z" fill-rule="evenodd" clip-rule="evenodd" fill="url(#a)"/></svg>