<svg xmlns="http://www.w3.org/2000/svg" viewBox="0 0 28 46"><circle cx="8.8" cy="27" r="3" fill="#f3901a"/><path d="M6.6 14.2c1.6 0 3-1.3 3-3 0-1.6-1.3-3-3-3s-3 1.3-3 3c.1 1.6 1.4 3 3 3z" fill="#f59d1a"/><circle cx="14.3" cy="11.2" r="3" fill="#f59d1a"/><circle cx="11.6" cy="19" r="3" fill="#f4971a"/><circle cx="17" cy="3.2" r="3" fill="#f6a31a"/><circle cx="3.4" cy="42.8" r="3" fill="#f1861b"/><path d="M21.9 8.2c-1.7 0-3 1.3-3 3 .1 1.6 1.4 3 3 3s3-1.3 3-3-1.3-3-3-3z" fill="#f59d1a"/><circle cx="6.1" cy="35" r="3" fill="#f28b1a"/><circle cx="19.2" cy="19" r="3" fill="#f4971a"/><circle cx="24.6" cy="3.2" r="3" fill="#f6a31a"/><circle cx="13.7" cy="35" r="3" fill="#f28b1a"/><circle cx="16.4" cy="27" r="3" fill="#f3901a"/></svg>