<svg xmlns="http://www.w3.org/2000/svg" viewBox="0 0 294.8 294.8"><path d="M65.8 62.4c-12.7 0-23 10.3-23 23s10.3 23 23 23 23-10.3 23-23-10.3-23-23-23zm0 34c-6.1 0-11-4.9-11-11s4.9-11 11-11 11 4.9 11 11-4.9 11-11 11zm181-17h-140c-3.3 0-6 2.7-6 6s2.7 6 6 6h140c3.3 0 6-2.7 6-6s-2.7-6-6-6zm-181 45c-3.3 0-6 2.7-6 6s2.7 6 6 6c6.1 0 11 4.9 11 11s-4.9 11-11 11-11-4.9-11-11c0-3.3-2.7-6-6-6s-6 2.7-6 6c0 12.7 10.3 23 23 23s23-10.3 23-23-10.3-23-23-23zm181 17h-140c-3.3 0-6 2.7-6 6s2.7 6 6 6h140c3.3 0 6-2.7 6-6s-2.7-6-6-6zm-181 45c-12.7 0-23 10.3-23 23s10.3 23 23 23 23-10.3 23-23-10.3-23-23-23zm0 34c-6.1 0-11-4.9-11-11s4.9-11 11-11 11 4.9 11 11-4.9 11-11 11zm181-17h-140c-3.3 0-6 2.7-6 6s2.7 6 6 6h140c3.3 0 6-2.7 6-6s-2.7-6-6-6z"/></svg>