<svg xmlns="http://www.w3.org/2000/svg" viewBox="0 0 54 54"><path d="M49.3 23.9l-2.7-.5c-1.5-.3-2.8-1.3-3.3-2.8-.6-1.4-.4-3.1.6-4.3l1.7-2.3c.3-.4.2-.9-.1-1.3l-3.6-3.6c-.4-.3-.9-.3-1.3-.1l-2.2 1.5c-1.3.9-2.9 1-4.3.4S31.7 9 31.4 7.5L31 4.7c-.1-.5-.5-.8-1-.8h-5.1c-.5 0-.9.3-1 .8l-.7 3.4c-.3 1.5-1.3 2.7-2.7 3.3-1.4.6-3 .4-4.3-.4l-2.9-2c-.4-.3-.9-.2-1.2.1l-3.6 3.6c-.3.3-.4.9-.1 1.3l1.7 2.3c.9 1.3 1.1 2.9.6 4.3-.6 1.4-1.8 2.5-3.3 2.8l-2.7.5c-.5.1-.8.5-.8 1V30c0 .5.3.9.8 1l2.8.4c1.5.2 2.8 1.2 3.4 2.7.6 1.4.5 3-.4 4.3L9 40.6c-.3.4-.2.9.1 1.2l3.6 3.6c.3.3.9.4 1.3.1l2.3-1.7c1.3-.9 2.9-1.1 4.3-.6 1.4.6 2.5 1.8 2.8 3.3l.5 2.7c.1.5.5.8 1 .8H30c.5 0 .9-.3 1-.8l.3-2c.2-1.6 1.3-2.9 2.7-3.5 1.5-.6 3.1-.4 4.4.5l1.6 1.2c.4.3.9.2 1.3-.1l3.6-3.6c.3-.3.4-.9.1-1.2l-1.5-2.2c-.9-1.3-1-2.9-.4-4.3s1.9-2.4 3.4-2.7l2.8-.4c.5-.1.8-.5.8-1v-5.1c0-.4-.3-.8-.8-.9zm-1.1 5.2l-2 .3c-2.2.3-4 1.8-4.9 3.8-.9 2-.7 4.4.6 6.2L43 41l-2.5 2.5-.9-.7c-1.8-1.3-4.2-1.6-6.3-.8-2.1.9-3.6 2.7-3.9 5l-.2 1.1h-3.5l-.4-1.9c-.4-2.2-1.9-4-4-4.8-2.1-.8-4.4-.5-6.2.8l-1.6 1.2-2.4-2.4 1.1-1.6c1.2-1.8 1.5-4.2.6-6.2s-2.7-3.5-4.9-3.8l-2-.3v-3.5l1.9-.4c2.2-.4 4-1.9 4.8-4 .8-2.1.5-4.4-.8-6.2l-1.2-1.6 2.5-2.5 2.2 1.5c1.8 1.2 4.1 1.5 6.1.6 2-.8 3.5-2.6 3.9-4.8l.5-2.6h3.5l.3 2c.3 2.2 1.8 4 3.8 4.9 2 .9 4.4.7 6.2-.6l1.6-1.1 2.5 2.5-1.2 1.6c-1.3 1.8-1.6 4.1-.8 6.2.8 2.1 2.6 3.6 4.8 4l1.9.4v3.6z"/><path d="M27.4 18.4c-5 0-9.1 4.1-9.1 9.1s4.1 9.1 9.1 9.1 9.1-4.1 9.1-9.1-4.1-9.1-9.1-9.1zm0 16.1c-3.9 0-7.1-3.2-7.1-7.1s3.2-7.1 7.1-7.1 7.1 3.2 7.1 7.1-3.2 7.1-7.1 7.1z"/><path d="M27.4 22.6c-2.7 0-4.8 2.2-4.8 4.8s2.2 4.8 4.8 4.8 4.8-2.2 4.8-4.8-2.1-4.8-4.8-4.8zm0 7.7c-1.6 0-2.9-1.3-2.9-2.9s1.3-2.9 2.9-2.9 2.9 1.3 2.9 2.9-1.3 2.9-2.9 2.9z"/></svg>