<svg height="682pt" viewBox="-21 -23 682.667 682" width="682pt" xmlns="http://www.w3.org/2000/svg"><path d="M513.75 62.668H394.2c-5.962-35.426-36.852-62.5-73.95-62.5h-.5c-37.098 0-67.988 27.074-73.95 62.5H87.813c-6.914 0-12.5 5.586-12.5 12.5v164.797l-71.636 71.34A12.523 12.523 0 0 0 0 320.168c0 3.324 1.324 6.512 3.676 8.848l71.636 71.336v159.816c0 6.898 5.586 12.5 12.5 12.5h126.61l-23.11 23.012c-4.886 4.87-4.902 12.789-.023 17.675a12.393 12.393 0 0 0 8.848 3.688c3.187 0 6.386-1.211 8.828-3.652l28.285-28.176c12.086 29.078 44.61 49.953 82.75 49.953 48.414 0 87.813-33.652 87.813-75 0-41.363-39.399-75-87.813-75-38.125 0-70.664 20.863-82.75 49.934l-28.102-27.973c-4.886-4.871-12.8-4.863-17.671.039-4.875 4.887-4.852 12.797.039 17.672l22.922 22.828H100.313V400.344l67.949-67.664 76.488.097v49.891c0 6.898 5.586 12.5 12.5 12.5h125.5c6.914 0 12.5-5.602 12.5-12.5v-125c0-6.914-5.586-12.5-12.5-12.5h-125.5c-6.914 0-12.5 5.586-12.5 12.5v50.11l-76.465-.098-67.972-67.7V87.668H245.8c5.96 35.422 36.851 62.5 73.949 62.5h.5c37.098 0 67.988-27.078 73.95-62.5h119.55c6.898 0 12.5-5.602 12.5-12.5 0-6.914-5.602-12.5-12.5-12.5zM257.203 560.102c.031-27.547 28.195-49.934 62.797-49.934 34.64 0 62.813 22.426 62.813 50 0 27.562-28.172 50-62.813 50-34.625 0-62.797-22.438-62.797-50zm-.215 2.324a11.849 11.849 0 0 1-1.265 3.605 12.87 12.87 0 0 0 1.265-3.605zm12.762-292.258h100.5v100h-100.5zm-124.352 50l-57.585 57.348-57.598-57.348 57.597-57.363zm174.852-195h-.5c-27.578 0-50-22.438-50-50 0-27.574 22.422-50 50-50h.5c27.578 0 50 22.426 50 50 0 27.562-22.422 50-50 50zm307.25 120h-51.25v-120c0-6.914-5.602-12.5-12.5-12.5s-12.5 5.586-12.5 12.5v120h-49.262c-6.902 0-12.5 5.586-12.5 12.5v125c0 6.898 5.598 12.5 12.5 12.5H627.5c6.898 0 12.5-5.602 12.5-12.5v-125c0-6.914-5.602-12.5-12.5-12.5zm-12.5 125H514.488v-100H615zM563.773 87.66c-6.902 0-12.503-5.594-12.503-12.5 0-6.902 5.59-12.5 12.496-12.5h.007c6.907 0 12.5 5.598 12.5 12.5 0 6.906-5.593 12.5-12.5 12.5zm0 0"/></svg>