<svg xmlns="http://www.w3.org/2000/svg" width="20" height="25" viewBox="7 6.5 20 25"><path d="M10.312 6.512A3.315 3.315 0 0 0 7 9.823v18.354a3.315 3.315 0 0 0 3.312 3.312h13.376A3.315 3.315 0 0 0 27 28.177V13.414l-6.176-6.902H10.312zm15.043 21.665c0 .918-.748 1.665-1.667 1.665H10.312a1.667 1.667 0 0 1-1.666-1.665V9.823c0-.918.747-1.665 1.666-1.665h9.322v6.394h5.721v13.625zM21.28 9.489l3.055 3.416H21.28V9.489z"/><path d="M23.316 19.654l-1.569-1.57-5.917 5.917-3.578-3.576-1.569 1.569 5.147 5.148z"/></svg>