<svg xmlns="http://www.w3.org/2000/svg" viewBox="0 0 401 401"><path d="M370.1 251.9c-5.5 0-10 4.5-10 10v88.7c0 16.5-13.4 29.9-30 30H49.9c-16.5 0-29.9-13.4-30-30V90.3c0-16.5 13.4-29.9 30-30h88.7c5.5 0 10-4.5 10-10s-4.5-10-10-10H49.9C22.4 40.4 0 62.7 0 90.3v260.3c0 27.6 22.4 49.9 49.9 49.9h280.2c27.6 0 49.9-22.4 49.9-49.9v-88.7c.1-5.5-4.4-10-9.9-10z"/><path d="M376.1 14.7c-17.6-17.6-46-17.6-63.6 0L134.4 192.9c-1.2 1.2-2.1 2.7-2.6 4.4l-23.4 84.6c-1 3.5 0 7.2 2.6 9.7 2.5 2.5 6.3 3.5 9.7 2.6l84.6-23.4c1.7-.5 3.2-1.3 4.4-2.6L387.9 90c17.5-17.6 17.5-46 0-63.6l-11.8-11.7zM156.2 199.3L302 53.5l47 47-145.8 145.9-47-47.1zm-9.4 18.9l37.6 37.6-52 14.4 14.4-52zM373.7 75.8l-10.6 10.6-47-47 10.6-10.6c9.7-9.7 25.6-9.7 35.3 0l11.7 11.7c9.8 9.8 9.8 25.6 0 35.3z"/></svg>