<svg xmlns="http://www.w3.org/2000/svg" viewBox="0 0 631 380.5"><path d="M523.1 91.8c-30.6-25.9-61.8-46.6-92.7-61.4C391.2 11.6 352.3 2 314.7 2S238.2 11.5 199 30.4c-30.9 14.9-62.1 35.5-92.7 61.4-51.8 43.9-83.7 87.2-85 89-3.2 4.4-3.2 10.3 0 14.7 1.3 1.8 33.2 45.1 85 89 30.6 25.9 61.8 46.6 92.7 61.4 39.2 18.8 78.1 28.4 115.7 28.4s76.5-9.5 115.7-28.4c30.9-14.9 62.1-35.5 92.7-61.4 51.8-43.9 83.7-87.2 85-89 3.2-4.4 3.2-10.3 0-14.7-1.3-1.9-33.2-45.2-85-89zM314.8 349.4c-76.9 0-146.8-45.4-191.8-83.5-27.6-23.5-53-49.5-75.7-77.7C73.3 155.7 184.5 27 314.8 27c76.9 0 146.8 45.4 191.8 83.5 27.6 23.5 53 49.5 75.7 77.7-26 32.4-137.2 161.2-267.5 161.2z"/><path d="M314.8 54.8c-73.6 0-133.3 59.7-133.3 133.3s59.7 133.3 133.3 133.3 133.3-59.7 133.3-133.3c-.1-73.6-59.7-133.2-133.3-133.3zm0 241.7c-59.9 0-108.4-48.5-108.4-108.4S254.9 79.7 314.8 79.7s108.4 48.5 108.4 108.4c-.1 59.9-48.6 108.3-108.4 108.4z"/></svg>