<svg xmlns="http://www.w3.org/2000/svg" viewBox="0 0 393 393"><path d="M371.9 0H21.5C15.3 0 9.6 3.4 6.8 8.9 4 14.5 4.5 21.2 8.1 26.3l128.4 180.8c0 .1.1.1.1.2 4.7 6.3 7.2 13.9 7.2 21.8v147.4c0 4.4 1.7 8.6 4.8 11.7 3.1 3.1 7.3 4.8 11.6 4.8 2.2 0 4.4-.4 6.5-1.3l72.1-27.5c6.5-2 10.8-8.1 10.8-15.4V229.1c0-7.8 2.5-15.5 7.2-21.8 0-.1.1-.1.1-.2L385.2 26.3c3.7-5.1 4.2-11.8 1.3-17.4-2.8-5.5-8.4-8.9-14.6-8.9zM240.7 195.5c-7.2 9.7-11 21.5-11.1 33.6v117.3l-65.8 25.1V229.1c0-12.1-3.9-23.9-11.1-33.6L28.1 19.9h337.2L240.7 195.5z"/></svg>