<svg xmlns="http://www.w3.org/2000/svg" viewBox="0 0 494.898 494.898"><path d="M261.198 297.336c-3.3 0-6 2.7-6 6 .1 17.8-6.7 34.5-19.1 47.2-12.4 12.7-29.1 19.7-46.9 19.8-17.8.1-34.5-6.7-47.2-19.1-12.7-12.4-19.7-29.1-19.8-46.9-.1-17.8 6.7-34.5 19.1-47.2 12.4-12.7 29.1-19.7 46.9-19.8 3.3 0 6-2.7 6-6s-2.7-6-6-6c-21 .2-40.6 8.5-55.3 23.4-14.7 14.9-22.9 34.9-22.7 55.8.2 21 8.5 40.6 23.4 55.3 14.9 14.7 34.7 22.7 55.7 22.6 21-.2 40.6-8.5 55.3-23.4 14.7-14.9 22.7-34.7 22.6-55.7 0-3.3-2.701-6-6-6z"/><path d="M363.398 337.736l-23.1-9.6c-3.1-1.3-6.6.2-7.8 3.2-1.3 3.1.2 6.6 3.2 7.8l23.1 9.6c5.2 2.2 7.7 8.1 5.5 13.3l-10.4 25.1c-2.1 5.2-8.1 7.7-13.3 5.5l-23.1-9.6c-2.6-1.1-5.7-.2-7.3 2.2-10.7 16-24.3 29.6-40.2 40.2-2.4 1.6-3.3 4.6-2.2 7.3l9.6 23.1c1 2.5 1 5.3 0 7.8s-3 4.5-5.5 5.5l-25.2 10.4c-2.5 1-5.3 1-7.8 0s-4.5-3-5.5-5.5l-9.6-23.1c-1.1-2.6-3.9-4.1-6.7-3.6-18.9 3.8-38 3.8-56.9 0-2.8-.6-5.6.9-6.7 3.6l-9.6 23.1c-2.2 5.2-8.1 7.7-13.3 5.5l-25.1-10.4c-5.2-2.2-7.7-8.1-5.5-13.3l9.6-23.1c1.1-2.6.2-5.7-2.2-7.3-16-10.7-29.6-24.3-40.2-40.2-1.6-2.4-4.6-3.3-7.3-2.2l-23.1 9.6c-2.5 1-5.3 1-7.8 0s-4.5-3-5.5-5.5l-10.4-25.2c-1-2.5-1-5.3 0-7.8s3-4.5 5.5-5.5l23.1-9.6c2.6-1.1 4.1-3.9 3.6-6.7-3.8-18.9-3.7-38 0-56.9.6-2.8-.9-5.6-3.6-6.7l-23.2-9.5c-5.2-2.2-7.7-8.1-5.5-13.3l10.4-25.1c2.2-5.2 8.1-7.7 13.3-5.5l23.1 9.6c2.6 1.1 5.7.2 7.3-2.2 10.7-16 24.3-29.6 40.2-40.2 2.4-1.6 3.3-4.6 2.2-7.3l-9.6-23.1c-1-2.5-1-5.3 0-7.8s3-4.5 5.5-5.5l25.2-10.4c2.5-1 5.3-1 7.8 0s4.5 3 5.5 5.5l9.6 23.1c1.3 3.1 4.8 4.5 7.8 3.2 3.1-1.3 4.5-4.8 3.2-7.8l-9.6-23.1c-2.3-5.5-6.5-9.7-12-12-2.7-1.1-5.6-1.7-8.5-1.7-2.9 0-5.8.6-8.5 1.7l-25.2 10.4c-5.5 2.3-9.7 6.5-12 12s-2.3 11.5 0 17l7.7 18.6c-14.2 10.1-26.5 22.4-36.7 36.7l-18.6-7.7c-5.5-2.3-11.5-2.3-17 0s-9.7 6.5-12 12l-10.4 25.1c-4.7 11.3.7 24.3 12 29l18.6 7.7c-2.9 17.3-2.9 34.7 0 51.9l-18.6 7.7c-5.3 2.2-9.6 6.4-11.8 11.9-2.3 5.5-2.3 11.5 0 17l10.4 25.2c2.3 5.5 6.5 9.7 12 12s11.5 2.3 17 0l18.6-7.7c10.1 14.2 22.4 26.5 36.7 36.7l-7.8 18.6c-4.7 11.3.7 24.3 12 29l25.1 10.4c11.3 4.7 24.3-.7 29-12l7.7-18.6c17.3 2.9 34.7 2.9 51.9 0l7.7 18.6c2.3 5.5 6.5 9.7 12 12s11.5 2.3 17 0l25.2-10.4c5.5-2.3 9.7-6.5 12-12s2.3-11.5 0-17l-7.7-18.6c14.2-10.1 26.5-22.4 36.7-36.7l18.6 7.7c5.5 2.3 11.5 2.3 17 0s9.7-6.5 12-12l10.4-25.1c4.7-11.3-.7-24.3-12-29zm-13.101-247c-31 0-56.2 25.2-56.2 56.2s25.2 56.2 56.2 56.2 56.2-25.2 56.2-56.2-25.2-56.2-56.2-56.2zm0 100.3c-24.4 0-44.2-19.8-44.2-44.2 0-24.4 19.8-44.2 44.2-44.2s44.2 19.8 44.2 44.2c0 24.4-19.799 44.2-44.2 44.2z"/><path d="M477.098 119.236h-13.3c-2.8-11.7-7.4-22.7-13.7-33l9.4-9.4c3.4-3.4 5.2-7.8 5.2-12.6 0-4.7-1.8-9.2-5.2-12.6l-14-14c-3.4-3.4-7.8-5.2-12.6-5.2-4.7 0-9.2 1.8-12.6 5.2l-9.4 9.4c-10.3-6.3-21.3-10.8-33-13.7v-13.2c0-9.8-8-17.8-17.8-17.8h-19.8c-9.8 0-17.8 8-17.8 17.8v13.3c-11.7 2.8-22.7 7.4-33 13.7l-9.4-9.4c-3.4-3.4-7.8-5.2-12.6-5.2s-9.2 1.8-12.6 5.2l-14 14c-3.4 3.4-5.2 7.8-5.2 12.6 0 4.7 1.8 9.2 5.2 12.6l9.4 9.4c-6.3 10.3-10.8 21.3-13.7 33h-13.3c-9.8 0-17.8 8-17.8 17.8v19.8c0 9.8 8 17.8 17.8 17.8h13.3c2.8 11.7 7.4 22.7 13.7 33l-9.4 9.4c-3.4 3.4-5.2 7.8-5.2 12.6 0 4.7 1.8 9.2 5.2 12.6l14 14c3.4 3.4 7.8 5.2 12.6 5.2s9.2-1.8 12.6-5.2l9.4-9.4c10.3 6.3 21.3 10.8 33 13.7v13.3c0 9.8 8 17.8 17.8 17.8h19.8c9.8 0 17.8-8 17.8-17.8v-13.3c11.7-2.8 22.7-7.4 33-13.7l9.4 9.4c3.4 3.4 7.8 5.2 12.6 5.2 4.7 0 9.2-1.8 12.6-5.2l14-14c3.4-3.4 5.2-7.8 5.2-12.6 0-4.7-1.8-9.2-5.2-12.6l-9.4-9.4c6.3-10.3 10.8-21.3 13.7-33h13.3c9.8 0 17.8-8 17.8-17.8v-19.8c-.101-10-8-17.9-17.8-17.9zm-.101 43.3h-18.2c-2.9 0-5.3 2-5.9 4.8-2.7 13.5-7.9 26.2-15.6 37.6-1.6 2.4-1.3 5.6.7 7.6l12.9 12.9c1.1 1.1 1.7 2.5 1.7 4.1 0 1.5-.6 3-1.7 4.1l-14 14c-1.1 1.1-2.5 1.7-4.1 1.7-1.5 0-3-.6-4.1-1.7l-12.9-12.9c-2-2-5.2-2.3-7.6-.7-11.5 7.7-24.1 12.9-37.6 15.6-2.8.6-4.8 3-4.8 5.9v18.2c0 3.2-2.6 5.8-5.8 5.8h-19.8c-3.2 0-5.8-2.6-5.8-5.8v-18.3c0-2.9-2-5.3-4.8-5.9-13.5-2.7-26.2-7.9-37.6-15.6-2.4-1.6-5.6-1.3-7.6.7l-12.9 12.9c-1.1 1.1-2.5 1.7-4.1 1.7-1.6 0-3-.6-4.1-1.7l-14-14c-1.1-1.1-1.7-2.5-1.7-4.1 0-1.5.6-3 1.7-4.1l12.9-12.9c2-2 2.3-5.2.7-7.6-7.7-11.5-12.9-24.1-15.6-37.6-.6-2.8-3-4.8-5.9-4.8h-18.2c-3.2 0-5.8-2.6-5.8-5.8v-19.8c0-3.2 2.6-5.8 5.8-5.8h18.2c2.9 0 5.3-2 5.9-4.8 2.7-13.5 7.9-26.2 15.6-37.6 1.6-2.4 1.3-5.6-.7-7.6l-12.9-12.9c-1.1-1.1-1.7-2.5-1.7-4.1 0-1.5.6-3 1.7-4.1l14-14c1.1-1.1 2.5-1.7 4.1-1.7 1.6 0 3 .6 4.1 1.7l12.9 12.9c2 2 5.2 2.3 7.6.7 11.5-7.7 24.1-12.9 37.6-15.6 2.8-.6 4.8-3 4.8-5.9v-17.9c0-3.2 2.6-5.8 5.8-5.8h19.8c3.2 0 5.8 2.6 5.8 5.8v18.2c0 2.9 2 5.3 4.8 5.9 13.5 2.7 26.2 7.9 37.6 15.6 1 .7 2.2 1 3.3 1 1.5 0 3.1-.6 4.2-1.8l12.9-12.9c1.1-1.1 2.5-1.7 4.1-1.7 1.5 0 3 .6 4.1 1.7l14 14c1.1 1.1 1.7 2.5 1.7 4.1 0 1.5-.6 3-1.7 4.1l-12.9 12.9c-2 2-2.3 5.2-.7 7.6 7.7 11.5 12.9 24.1 15.6 37.6.6 2.8 3 4.8 5.9 4.8h18.2c3.2 0 5.8 2.6 5.8 5.8v19.7h.1c0 3.2-2.599 5.8-5.8 5.8z"/></svg>