<svg xmlns="http://www.w3.org/2000/svg" width="28" height="30" viewBox="336 335 28 30"><path fill="#2B414D" d="M354.102 355.907c6.321-.529 9.329-4.023 9.545-8.639.181-2.629-.865-4.941-2.721-6.806.094-1.996-.06-4.361-.189-5.4-1.425-.41-4.749 1.345-5.678 2.096-1.959-.761-6.753-1.027-9.667 0-2.066-1.453-4.417-2.35-5.698-2.1-1.183 2.622-.423 5.101-.192 5.396-1.524 1.393-3.649 3.106-3.072 6.697.926 5.265 4.63 8.105 10.594 8.799-1.272.26-1.487 1.209-1.594 1.621-4.005 1.652-5.15-1.02-5.656-1.717-1.681-2.081-3.19-1.477-3.283-1.445-.09.033-.159.164-.149.227.085.449 1 .904 1.045.941 1.241.925 1.7 2.595 1.983 3.071 1.78 2.926 5.916 1.713 5.956 1.737.003.251-.028 2.328-.052 3.989 1.494.407 3.066.625 4.689.625 2.152 0 4.214-.381 6.124-1.08-.124-1.697-.26-3.761-.269-4.605-.053-.659-.124-2.336-1.716-3.407z"/></svg>