<svg xmlns="http://www.w3.org/2000/svg" width="34" height="34" viewBox="0 2 34 34"><path fill="#FBBB00" d="M7.535 22.547l-1.183 4.418-4.326.092A16.925 16.925 0 0 1 0 19c0-2.819.686-5.477 1.901-7.818h.001l3.851.706 1.687 3.828A10.104 10.104 0 0 0 6.894 19c0 1.248.226 2.444.641 3.547z"/><path fill="#518EF8" d="M33.703 15.824C33.898 16.853 34 17.915 34 19c0 1.217-.128 2.404-.372 3.549a17.001 17.001 0 0 1-5.985 9.708l-.001-.001-4.851-.247-.687-4.286a10.13 10.13 0 0 0 4.359-5.174h-9.09v-6.725h16.33z"/><path fill="#28B446" d="M27.642 32.256A16.918 16.918 0 0 1 17 36c-6.474 0-12.103-3.619-14.974-8.944l5.509-4.51A10.108 10.108 0 0 0 17 29.105c1.862 0 3.607-.503 5.105-1.382l5.537 4.533z"/><path fill="#F14336" d="M27.851 5.914l-5.507 4.509A10.049 10.049 0 0 0 17 8.894c-4.431 0-8.196 2.853-9.56 6.822l-5.538-4.534h-.001C4.73 5.727 10.43 2 17 2c4.125 0 7.907 1.469 10.851 3.914z"/></svg>