<svg xmlns="http://www.w3.org/2000/svg" width="188" height="188" viewBox="162 162 188 188"><path d="M256 350c-51.831 0-94-42.169-94-94s42.169-94 94-94 94 42.169 94 94-42.169 94-94 94zm0-182.303c-48.692 0-88.303 39.611-88.303 88.303s39.611 88.303 88.303 88.303 88.303-39.611 88.303-88.303-39.611-88.303-88.303-88.303z"/><path d="M255.994 299.234c-13.547 0-27.089-3.714-39.172-11.155l-2.256-1.39a2.846 2.846 0 1 1 2.986-4.848l2.256 1.39c22.326 13.747 50.054 13.752 72.374-.006l2.256-1.396a2.849 2.849 0 0 1 2.991 4.849l-2.262 1.396c-12.078 7.44-25.625 11.16-39.173 11.16zm-13.484-61.179a2.862 2.862 0 0 1-2.017-.832l-11.212-11.212-11.212 11.212a2.85 2.85 0 0 1-4.028 0 2.85 2.85 0 0 1 0-4.028l13.223-13.223a2.85 2.85 0 0 1 4.028 0l13.223 13.223a2.85 2.85 0 0 1 0 4.028 2.818 2.818 0 0 1-2.005.832zm53.431 0a2.862 2.862 0 0 1-2.017-.832l-11.212-11.212-11.212 11.212a2.85 2.85 0 0 1-4.028 0 2.85 2.85 0 0 1 0-4.028l13.223-13.223a2.85 2.85 0 0 1 4.028 0l13.223 13.223a2.85 2.85 0 0 1 0 4.028 2.815 2.815 0 0 1-2.005.832z"/></svg>