<svg xmlns="http://www.w3.org/2000/svg" width="18" height="18"><path d="M8.998 0h.003zm8.948 5.289c-.045-.958-.197-1.612-.418-2.184a4.414 4.414 0 0 0-1.039-1.594A4.398 4.398 0 0 0 14.895.473C14.321.25 13.667.099 12.709.055 11.749.011 11.443 0 9 0S6.25.011 5.29.054C4.332.098 3.678.25 3.106.472A4.398 4.398 0 0 0 1.512 1.51 4.414 4.414 0 0 0 .473 3.104C.25 3.676.098 4.331.055 5.288.011 6.249 0 6.556 0 9s.011 2.75.054 3.71c.044.958.196 1.612.418 2.184.23.592.538 1.094 1.038 1.594.5.501 1.002.809 1.594 1.039.573.223 1.227.374 2.185.418.96.044 1.267.055 3.711.055s2.75-.011 3.71-.054c.958-.044 1.613-.196 2.186-.418a4.398 4.398 0 0 0 1.593-1.039c.501-.5.808-1.002 1.039-1.594.221-.572.373-1.227.418-2.184C17.989 11.75 18 11.444 18 9s-.011-2.751-.054-3.711zm-8.937 8.332a4.62 4.62 0 1 1 0-9.243 4.622 4.622 0 0 1 0 9.243zm4.804-8.345a1.08 1.08 0 1 1 .001-2.161 1.08 1.08 0 0 1-.001 2.161z"/><circle cx="9.009" cy="9" r="3"/></svg>