<svg xmlns="http://www.w3.org/2000/svg" width="18" height="18" viewBox="21 21 18 18" enable-background="new 21 21 18 18"><defs><filter id="a" filterUnits="userSpaceOnUse" x="21" y="21" width="18" height="18"><feColorMatrix values="1 0 0 0 0 0 1 0 0 0 0 0 1 0 0 0 0 0 1 0"/></filter></defs><mask maskUnits="userSpaceOnUse" x="21" y="21" width="18" height="18" id="b"><g filter="url(#a)"><path fill="#FFF" d="M13.125 30c0-9.32 7.555-16.875 16.875-16.875S46.875 20.68 46.875 30 39.32 46.875 30 46.875 13.125 39.32 13.125 30z"/></g></mask><path mask="url(#b)" d="M30.001 21c-2.444 0-2.751.011-3.711.054-.958.044-1.612.196-2.184.418a4.398 4.398 0 0 0-1.594 1.038 4.414 4.414 0 0 0-1.039 1.594c-.223.572-.375 1.227-.418 2.184C21.011 27.249 21 27.556 21 30s.011 2.75.054 3.71c.044.958.196 1.612.418 2.184.23.592.538 1.094 1.038 1.594.5.501 1.002.809 1.594 1.039.573.223 1.227.374 2.185.418.96.044 1.267.055 3.711.055s2.75-.011 3.71-.054c.958-.044 1.613-.196 2.186-.418a4.398 4.398 0 0 0 1.593-1.039c.501-.5.808-1.002 1.039-1.594.221-.572.373-1.227.418-2.184.043-.961.054-1.267.054-3.711s-.011-2.751-.054-3.711c-.045-.958-.197-1.612-.418-2.184a4.414 4.414 0 0 0-1.039-1.594 4.398 4.398 0 0 0-1.594-1.038c-.574-.223-1.228-.374-2.186-.418-.96-.044-1.266-.055-3.711-.055h.003zm-.808 1.622H30c2.403 0 2.688.009 3.637.052.878.04 1.354.187 1.671.31.42.163.719.358 1.034.673a2.8 2.8 0 0 1 .674 1.035c.123.317.27.793.31 1.671.043.949.052 1.234.052 3.636s-.009 2.687-.052 3.636c-.04.878-.187 1.354-.31 1.671-.163.42-.359.719-.674 1.034-.315.315-.614.51-1.034.673-.317.124-.794.27-1.671.31-.949.043-1.234.053-3.637.053s-2.688-.009-3.637-.053c-.878-.04-1.354-.187-1.671-.31a2.786 2.786 0 0 1-1.035-.673 2.797 2.797 0 0 1-.674-1.034c-.123-.317-.27-.793-.31-1.671-.043-.949-.052-1.234-.052-3.637s.009-2.687.052-3.636c.04-.878.187-1.354.31-1.671.163-.42.359-.72.674-1.035a2.8 2.8 0 0 1 1.035-.674c.317-.124.794-.27 1.671-.31.83-.038 1.152-.049 2.829-.051v.001zm5.612 1.494a1.08 1.08 0 1 0 0 2.16 1.08 1.08 0 0 0 0-2.16zm-4.804 1.262a4.622 4.622 0 1 0 0 9.244 4.622 4.622 0 0 0 0-9.244zm0 1.622a3 3 0 1 1 0 6 3 3 0 0 1 0-6z"/></svg>