<svg xmlns="http://www.w3.org/2000/svg" viewBox="0 0 57 57"><path d="M54 35.705V12.176C54 5.462 48.538 0 41.824 0H12.176C5.462 0 0 5.462 0 12.176v29.648C0 48.538 5.462 54 12.176 54h23.529c2.253 1.872 5.144 3 8.295 3 7.168 0 13-5.832 13-13 0-3.151-1.128-6.042-3-8.295zM12.176 52C6.565 52 2 47.436 2 41.824V12.176C2 6.564 6.565 2 12.176 2h29.648C47.435 2 52 6.564 52 12.176v21.592c-.075-.059-.155-.109-.231-.166-.21-.158-.42-.315-.64-.46l-.071-.043a12.97 12.97 0 0 0-1.616-.888c-.076-.035-.15-.075-.226-.109-.22-.097-.445-.18-.671-.265-.143-.054-.286-.109-.431-.158-.207-.069-.416-.13-.627-.189a13.64 13.64 0 0 0-1.115-.262c-.23-.043-.462-.076-.695-.106-.156-.02-.311-.045-.469-.06-.4-.039-.803-.062-1.208-.062-6.134 0-11.277 4.276-12.637 10H27a1 1 0 1 0 0 2h4.051c-.026.331-.051.663-.051 1 0 .405.024.808.061 1.208.015.159.039.314.06.471.03.231.063.462.106.69a13.873 13.873 0 0 0 .453 1.748c.047.141.101.279.153.418.086.23.171.459.269.683.029.066.064.13.094.196.267.58.571 1.14.918 1.67l.026.042c.146.221.304.432.462.644.057.076.107.155.165.23H12.176zM44 55c-2.821 0-5.39-1.077-7.339-2.83a10.837 10.837 0 0 1-.693-.679c-.049-.052-.096-.105-.144-.158a11.32 11.32 0 0 1-.595-.721c-.043-.057-.087-.114-.129-.172a11.08 11.08 0 0 1-.521-.789c-.033-.054-.067-.107-.099-.163a10.999 10.999 0 0 1-.451-.869c-.022-.047-.046-.092-.067-.14a10.651 10.651 0 0 1-.37-.946c-.013-.04-.03-.078-.043-.117a11.244 11.244 0 0 1-.273-.995c-.009-.039-.022-.077-.03-.117a10.57 10.57 0 0 1-.163-1.005c-.006-.047-.016-.093-.021-.141A10.843 10.843 0 0 1 33 44c0-6.065 4.935-11 11-11 .39 0 .777.021 1.161.063.045.005.088.015.133.021.34.041.679.093 1.012.165.038.008.074.021.112.029.338.077.672.166 1 .274.037.012.073.027.11.04.324.11.643.234.955.374.044.02.087.043.131.063.299.139.592.29.878.455.052.03.103.063.154.094.273.165.539.339.798.527l.163.122c.252.19.496.391.732.603.05.045.1.089.148.135.239.223.469.458.69.704A10.937 10.937 0 0 1 55 44c0 6.065-4.935 11-11 11z"/><path d="M50 43h-5v-5a1 1 0 1 0-2 0v5h-5a1 1 0 1 0 0 2h5v5a1 1 0 1 0 2 0v-5h5a1 1 0 1 0 0-2zM27 14h18a1 1 0 1 0 0-2H27a1 1 0 1 0 0 2zm0 14h18a1 1 0 1 0 0-2H27a1 1 0 1 0 0 2zM19.169 7.35l-6.248 7.288L9.1 11.771a1 1 0 0 0-1.2 1.599l4.571 3.429a.995.995 0 0 0 1.36-.15l6.857-8a1 1 0 1 0-1.519-1.299zm0 14l-6.248 7.288L9.1 25.771a1 1 0 0 0-1.2 1.599l4.571 3.429a.995.995 0 0 0 1.36-.15l6.857-8a1 1 0 1 0-1.519-1.299zm0 15l-6.248 7.287L9.1 40.771a1.001 1.001 0 0 0-1.4.2.998.998 0 0 0 .2 1.399l4.571 3.429a.995.995 0 0 0 1.36-.15l6.857-7.999a1 1 0 1 0-1.519-1.3z"/></svg>