<svg xmlns="http://www.w3.org/2000/svg" width="95" height="18"><path d="M18.475 8.388l2.018-1.108c-.736-1.171-2.123-1.893-3.648-1.893-2.474 0-4.34 1.756-4.34 4.086s1.866 4.086 4.34 4.086c1.528 0 2.916-.729 3.648-1.909l-2.016-1.092c-.303.528-.931.852-1.665.852-1.154 0-1.991-.815-1.991-1.937s.837-1.937 1.991-1.937c.73-.001 1.344.316 1.663.852zm7.013-3.002c-2.434 0-4.34 1.795-4.34 4.086s1.907 4.086 4.34 4.086 4.34-1.795 4.34-4.086-1.906-4.086-4.34-4.086zm0 6.054c-1.173 0-2.025-.828-2.025-1.969s.851-1.969 2.025-1.969 2.025.828 2.025 1.969-.851 1.969-2.025 1.969zm14.357 1.896V2.438h-2.316v4.069l-.171-.186c-.569-.62-1.385-.935-2.423-.935-2.19 0-3.905 1.795-3.905 4.086s1.715 4.086 3.905 4.086c1.039 0 1.854-.315 2.423-.935l.171-.186v.899h2.316zm-4.407-1.832c-1.251 0-2.092-.817-2.092-2.032s.841-2.032 2.092-2.032c1.251 0 2.092.817 2.092 2.032s-.841 2.032-2.092 2.032zm10.385-6.118c-2.525 0-4.357 1.718-4.357 4.086 0 2.406 1.867 4.086 4.541 4.086 1.52 0 2.698-.506 3.502-1.503l-1.844-1.003c-.384.364-.985.579-1.625.579-1.094 0-1.801-.394-2.102-1.172l-.052-.134h6.01c.054-.27.082-.557.082-.852.001-2.33-1.786-4.087-4.155-4.087zm-1.974 3.36l.037-.126c.248-.853.93-1.323 1.92-1.323.943 0 1.625.482 1.87 1.323l.037.126h-3.864zm11.739 7.981c1.995 0 4.324-.966 4.324-3.689v-7.43h-2.249v.977l-.173-.204c-.562-.661-1.359-.995-2.371-.995-2.255 0-4.022 1.725-4.022 3.927s1.767 3.927 4.022 3.927c1.011 0 1.809-.335 2.371-.995l.173-.204v.997c0 1.14-.726 1.794-1.991 1.794-1.166 0-1.659-.499-1.946-.965l-1.97 1.078c.729 1.15 2.085 1.782 3.832 1.782zm-.051-5.477c-1.251 0-2.125-.796-2.125-1.937s.874-1.937 2.125-1.937 2.125.796 2.125 1.937-.873 1.937-2.125 1.937zm9.33 2.307c1.018 0 1.862-.338 2.317-.928l.176-.229v.935h2.316V5.608H67.36v4.228c0 1.1-.604 1.731-1.656 1.731-.96 0-1.556-.59-1.556-1.541V5.608h-2.316v4.767c.001 2.198 1.525 3.182 3.035 3.182zm6.849-7.949h2.316v7.727h-2.316zm1.157-3.55c-.764 0-1.409.608-1.409 1.328 0 .72.645 1.328 1.409 1.328s1.409-.608 1.409-1.328c0-.72-.645-1.328-1.409-1.328zm11.594 11.278V2.438h-2.316v4.069l-.171-.186c-.569-.62-1.385-.935-2.423-.935-2.19 0-3.905 1.795-3.905 4.086s1.715 4.086 3.905 4.086c1.039 0 1.854-.315 2.423-.935l.171-.186v.899h2.316zm-4.408-1.832c-1.251 0-2.092-.817-2.092-2.032s.841-2.032 2.092-2.032 2.092.817 2.092 2.032-.841 2.032-2.092 2.032zm14.843 1.832V5.608h-2.316v.899l-.171-.186c-.569-.62-1.385-.935-2.423-.935-2.19 0-3.905 1.795-3.905 4.086s1.715 4.086 3.905 4.086c1.039 0 1.854-.315 2.423-.935l.171-.186v.899h2.316zm-4.408-1.832c-1.251 0-2.092-.817-2.092-2.032s.841-2.032 2.092-2.032c1.251 0 2.092.817 2.092 2.032s-.841 2.032-2.092 2.032zm-69.212 3.571c.295 0 .442.18.325.4l-.728 1.377c-.116.22-.453.4-.748.4h-9.283c-.295 0-.442-.18-.325-.4l.728-1.377c.116-.22.453-.4.748-.4h9.283zM8.273 7.591c.307-.306.689-.228.85.174l.576 1.44c.161.402.042.982-.264 1.288l-6.723 6.723c-.306.306-.688.228-.849-.174l-.576-1.44c-.162-.402-.043-.982.263-1.288l6.723-6.723zm-.242-.222L3.089 2.428c-.306-.307-.885-.426-1.288-.265l-1.44.576c-.402.161-.48.543-.174.85l5.812 5.812 2.032-2.032z" fill="#313335"/></svg>