<svg xmlns="http://www.w3.org/2000/svg" width="20" height="20" viewBox="7 9 20 20"><path d="M26.35 15.05c-1.513-4.123-5.449-6.51-10.062-6.067-3.921.374-7.219 2.84-8.606 6.439-1.388 3.598-.63 7.481 2.025 10.389 1.804 1.977 4.724 3.256 7.44 3.26h.008c2.403 0 4.537-.944 6.171-2.727a.66.66 0 0 0-.04-.932.661.661 0 0 0-.931.041 7.029 7.029 0 0 1-5.208 2.3c-2.362-.003-4.902-1.114-6.469-2.83-2.311-2.531-2.971-5.905-1.768-9.026 1.223-3.177 4.028-5.27 7.502-5.602 3.962-.373 7.398 1.666 8.698 5.21.43 1.17.929 3.894.196 5.183-.203.359-.476.559-.859.631-.609.115-1.159-.2-1.405-.803-.054-.13-.115-.501-.174-.858-.154-.932-.365-2.209-.961-3.39-.974-1.927-2.945-3.217-5.02-3.287-2.259-.083-4.484 1.46-5.3 3.655a5.599 5.599 0 0 0-.356 1.974 5.66 5.66 0 0 0 5.653 5.654 5.606 5.606 0 0 0 3.477-1.195.659.659 0 1 0-.81-1.038 4.302 4.302 0 0 1-2.666.916 4.34 4.34 0 0 1-4.063-5.849c.626-1.681 2.287-2.848 4.023-2.8 1.576.053 3.14 1.083 3.887 2.565.505 1 .699 2.162.838 3.01.083.507.144.874.253 1.141.485 1.189 1.634 1.833 2.869 1.599.759-.142 1.369-.584 1.762-1.275 1.092-1.923.27-5.268-.104-6.288"/></svg>