<svg xmlns="http://www.w3.org/2000/svg" viewBox="0 0 512 512"><path d="M255-1C113.6-1-1 113.6-1 255s114.6 256 256 256 256-114.6 256-256C510.8 113.7 396.3-.8 255-1zm0 480C131.3 479 31 378.7 31 255S131.3 31 255 31s224 100.3 224 224c-.1 123.7-100.3 223.9-224 224z"/><path d="M379.4 130.6c-6.2-6.2-16.4-6.2-22.6 0L255 232.4 153.2 130.6c-6.1-6.4-16.3-6.5-22.6-.4-6.4 6.1-6.5 16.3-.4 22.6l.4.4L232.4 255 130.6 356.8c-6.4 6.1-6.5 16.3-.4 22.6 6.1 6.4 16.3 6.5 22.6.4l.4-.4L255 277.6l101.8 101.8c6.4 6.1 16.5 6 22.6-.4 6-6.2 6-16 0-22.2L277.6 255l101.8-101.8c6.3-6.3 6.3-16.4 0-22.6z"/></svg>