<svg xmlns="http://www.w3.org/2000/svg" viewBox="0 0 205 205"><path d="M113.7 202.9H92.2c-3.2 0-4.4 0-15.4-27.4l-8.5-3.5c-23.2 10.5-26 10.5-26.9 10.5h-1.8l-1.5-1.3-15.3-14.9c-2.3-2.3-3.1-3.1 8.8-30.1l-3.5-8.2C0 118 0 116.8 0 113.5V92.4c0-3.3 0-4.4 28-15.2l3.5-8.2c-12.6-26.6-11.8-27.4-9.3-29.8l16.4-16.1 2-.1c2.5 0 11.7 3.4 27.4 10l8.5-3.5C86.8 2.1 88 2.1 91.2 2.1h21.5c3.2 0 4.4 0 15.4 27.4l8.5 3.4c23.2-10.5 26-10.5 26.9-10.5h1.8l1.5 1.3 15.3 14.9c2.3 2.3 3.1 3.1-8.8 30.2l3.5 8.3C205 87 205 88.2 205 91.5v21.1c0 3.2 0 4.4-28 15.2l-3.5 8.3c12.6 26.5 11.7 27.3 9.4 29.7L166.3 182l-2.1.1c-2.5 0-11.6-3.4-27.3-10l-8.6 3.5c-10.1 27.3-11.3 27.3-14.6 27.3zm-19.3-8.7h17c1.9-4 6.2-14.5 9.5-23.6l.7-1.8 15.5-6.2 1.7.7c9.2 3.9 20.1 8.3 24.4 9.6l11.9-11.7c-1.5-4.2-6.1-14.5-10.3-23.2l-.8-1.8 6.4-15.3 1.7-.7c9.3-3.6 20.1-8 24.1-10V93.9c-4.1-1.9-14.8-6-24.1-9.3l-1.8-.6-6.4-15.3.8-1.7c4-8.9 8.4-19.5 9.8-23.8l-12-11.7c-3.9 1.3-14.7 6-23.8 10.2l-1.7.8-15.5-6.2-.7-1.7c-3.7-9.1-8.2-19.7-10.3-23.6h-17c-2 4-6.2 14.5-9.5 23.6l-.7 1.8-15.4 6.3-1.7-.7C57 38.1 46 33.7 41.8 32.4L29.9 43.8C31.4 48 36 58.3 40.2 67l.8 1.8L34.6 84l-1.7.7c-9.3 3.6-20.1 8-24.1 10v16.4c4.1 1.9 14.8 6 24.1 9.3l1.8.7 6.4 15.2-.8 1.7c-4 8.9-8.4 19.5-9.8 23.7l12 11.7c3.9-1.4 14.7-6 23.8-10.2l1.7-.8 15.4 6.3.7 1.7c3.7 9.3 8.3 19.9 10.3 23.8zm8.1-56.5c-19.8 0-35.8-15.8-35.8-35.2 0-19.4 16.1-35.1 35.8-35.1 19.7 0 35.8 15.8 35.8 35.1 0 19.4-16.1 35.2-35.8 35.2zm0-61.6c-15 0-27.1 11.8-27.1 26.4 0 14.6 12.2 26.4 27.1 26.4 14.9 0 27.1-11.9 27.1-26.4 0-14.6-12.2-26.4-27.1-26.4z" fill="#010002"/></svg>