<svg xmlns="http://www.w3.org/2000/svg" width="18" height="16" viewBox="21 22 18 16"><path fill="#C8DAEA" d="M27.77 36.634c-.536 0-.445-.202-.63-.713l-1.577-5.19 12.139-7.201"/><path fill="#A9C9DD" d="M27.77 36.634c.414 0 .597-.189.828-.414l2.207-2.146-2.753-1.66"/><linearGradient id="a" gradientUnits="userSpaceOnUse" x1="-310.728" y1="365.824" x2="-310.654" y2="365.623" gradientTransform="matrix(32.6232 0 0 -27.3624 10168.237 10039.099)"><stop offset="0" stop-color="#eff7fc"/><stop offset="1" stop-color="#fff"/></linearGradient><path fill="url(#a)" d="M28.052 32.415l6.671 4.928c.761.42 1.311.203 1.5-.707l2.715-12.796c.278-1.115-.425-1.62-1.153-1.289L21.84 28.699c-1.088.437-1.082 1.044-.198 1.314l4.092 1.277 9.473-5.976c.447-.271.858-.125.521.174"/></svg>