<svg xmlns="http://www.w3.org/2000/svg" width="18" height="15" viewBox="21 22.5 18 15"><path fill="#FFF" d="M29.74 26.519l.039.643-.65-.079c-2.367-.302-4.435-1.326-6.191-3.046l-.858-.853-.221.63c-.468 1.405-.169 2.889.806 3.887.52.551.403.63-.494.302-.312-.105-.585-.184-.611-.144-.091.092.221 1.287.468 1.759.338.657 1.027 1.3 1.782 1.681l.637.302-.754.013c-.728 0-.754.013-.676.289.26.853 1.288 1.759 2.432 2.153l.806.276-.702.42a7.33 7.33 0 0 1-3.486.972c-.586.013-1.067.066-1.067.105 0 .131 1.587.867 2.51 1.155 2.77.853 6.061.486 8.532-.972 1.756-1.037 3.512-3.099 4.331-5.095.442-1.064.884-3.007.884-3.939 0-.604.039-.683.767-1.405.429-.42.832-.88.91-1.011.13-.249.117-.249-.546-.026-1.106.394-1.262.341-.715-.249.403-.42.884-1.182.884-1.405 0-.039-.195.026-.416.144-.234.131-.754.328-1.145.446l-.702.223-.637-.433c-.351-.236-.845-.499-1.106-.578-.663-.184-1.678-.158-2.276.053-1.625.592-2.652 2.115-2.535 3.782z"/></svg>