<svg xmlns="http://www.w3.org/2000/svg" width="25" height="25" viewBox="337.5 337.5 25 25"><path d="M350 337.5c-6.893 0-12.5 5.607-12.5 12.5 0 1.779.368 3.499 1.094 5.112a12.504 12.504 0 0 0 2.848 3.99l-.017.015.526.443c.016.014.033.026.05.038a12.353 12.353 0 0 0 .698.536c.068.049.145.105.222.158.238.164.49.325.746.476.055.033.111.064.167.096.289.165.577.315.855.446l.035.016.029.013c.96.446 1.977.768 3.023.957l.084.015c.342.059.678.104.999.133l.063.005.06.005c.37.031.703.045 1.018.045a12.6 12.6 0 0 0 1.011-.045l.061-.005.066-.005c.325-.03.658-.074.991-.131l.015-.003.07-.013a12.442 12.442 0 0 0 5.026-2.119l.049-.035c.215-.155.407-.301.585-.446l.052-.04c.025-.019.052-.038.077-.06l.54-.451-.018-.016a12.462 12.462 0 0 0 2.871-3.998 12.372 12.372 0 0 0 1.105-5.136C362.5 343.107 356.893 337.5 350 337.5zm0 23.819c-.254 0-.529-.011-.841-.035l-.036-.003-.109-.009c-.301-.027-.576-.06-.837-.103l-.04-.007a11.416 11.416 0 0 1-1.727-.431l-.052-.018a11.326 11.326 0 0 1-.826-.316l-.007-.003c-.235-.101-.483-.22-.757-.362l-.04-.021-.057-.03c-.21-.112-.428-.239-.667-.389l-.194-.124a11.816 11.816 0 0 1-.479-.329l3.405-1.857a2.04 2.04 0 0 0 1.065-1.793v-1.67l-.137-.165c-.01-.011-.962-1.181-1.319-2.734l-.054-.234-.201-.131a.604.604 0 0 1-.281-.507v-1.593c0-.168.072-.326.204-.445l.195-.176v-2.566l-.004-.069-.001-.008c-.001-.01-.118-1.037.593-1.849.622-.709 1.7-1.069 3.203-1.069 1.497 0 2.572.357 3.196 1.061.705.796.605 1.817.6 1.861l-.005 2.639.195.176a.599.599 0 0 1 .204.445v1.593a.609.609 0 0 1-.431.573l-.294.09-.095.293a8.174 8.174 0 0 1-1.103 2.223 5.317 5.317 0 0 1-.322.415l-.146.167v1.715a2.03 2.03 0 0 0 1.129 1.826l3.669 1.834c-.145.104-.29.204-.432.296l-.023.015c-.065.043-.133.086-.199.128a11.13 11.13 0 0 1-.64.368l-.093.048-.052.027c-.506.259-1.027.48-1.548.655l-.026.009-.031.011a11.19 11.19 0 0 1-.829.241l-.018.004c-.28.069-.573.129-.872.178l-.016.003-.008.001c-.257.042-.53.075-.833.102l-.112.009-.036.003a9.976 9.976 0 0 1-.828.037zm2.981-7.07c.081-.101.165-.214.251-.335a9.302 9.302 0 0 0 1.175-2.283c.596-.307.964-.907.964-1.579v-1.593c0-.404-.141-.798-.399-1.116v-2.039c.027-.277.097-1.62-.881-2.735-.856-.977-2.232-1.472-4.091-1.472s-3.235.495-4.091 1.472c-.978 1.115-.908 2.458-.881 2.735v2.039a1.779 1.779 0 0 0-.399 1.116v1.593c0 .519.225 1.007.618 1.347a8.587 8.587 0 0 0 1.374 2.839v1.254a.86.86 0 0 1-.449.756l-3.553 1.938c-.085.046-.17.098-.259.158a11.333 11.333 0 0 1-3.679-8.342c0-6.241 5.078-11.319 11.319-11.319 6.241 0 11.319 5.078 11.319 11.319 0 3.19-1.358 6.241-3.731 8.389a3.229 3.229 0 0 0-.326-.189l-3.805-1.902a.856.856 0 0 1-.476-.769v-1.282z"/></svg>