<svg xmlns="http://www.w3.org/2000/svg" width="21" height="12" viewBox="19.5 24 21 12"><path fill="#FFF" d="M31.03 35.831s.379-.041.573-.246c.178-.188.172-.541.172-.541s-.024-1.652.758-1.896c.77-.24 1.759 1.598 2.809 2.305.793.534 1.395.417 1.395.417l2.805-.038s1.467-.089.771-1.221c-.058-.093-.406-.838-2.085-2.368-1.759-1.602-1.523-1.343.595-4.114 1.29-1.688 1.806-2.718 1.644-3.159-.153-.421-1.102-.31-1.102-.31l-3.157.019s-.234-.031-.408.071c-.169.1-.279.333-.279.333s-.499 1.306-1.166 2.417c-1.406 2.343-1.968 2.467-2.198 2.322-.535-.34-.402-1.363-.402-2.09 0-2.271.351-3.218-.683-3.463-.343-.082-.596-.135-1.474-.144-1.127-.011-2.08.004-2.62.263-.359.172-.637.558-.467.58.209.027.681.125.932.46.324.433.312 1.402.312 1.402s.186 2.674-.434 3.005c-.425.228-1.009-.237-2.263-2.363-.642-1.089-1.127-2.293-1.127-2.293s-.093-.225-.261-.346c-.202-.146-.485-.192-.485-.192l-3 .019s-.451.012-.616.205c-.147.17-.011.524-.011.524s2.349 5.395 5.009 8.114c2.439 2.492 5.208 2.329 5.208 2.329h1.255z"/></svg>